<svg width="40" height="40" viewBox="0 0 40 40" fill="none" xmlns="http://www.w3.org/2000/svg">
<rect width="40" height="40" rx="20" fill="#F9818E"/>
<path fill-rule="evenodd" clip-rule="evenodd" d="M14.9437 15.0893H25.0567C27.7897 15.0893 30 17.1187 30 19.974C30 22.8312 27.7897 24.9107 25.0566 24.9107H14.9437C12.2117 24.9107 10 22.8312 10 19.974C10 17.1187 12.2117 15.0893 14.9437 15.0893ZM17.2662 20.7143C17.3919 20.7143 17.5 20.598 17.5 20.4776H17.5V19.489C17.5 19.3685 17.3942 19.2857 17.2689 19.2857H15.7143V17.7338C15.7143 17.608 15.598 17.5 15.4776 17.5H14.489C14.3685 17.5 14.2857 17.6059 14.2857 17.7311V19.2857H12.7024C12.5856 19.2857 12.5 19.3813 12.5 19.4987V20.4552C12.5 20.5757 12.5907 20.7143 12.717 20.7143H14.2857V22.2976C14.2857 22.4144 14.3813 22.5 14.4987 22.5H15.4552C15.5757 22.5 15.7143 22.4093 15.7143 22.283V20.7143H17.2662ZM22.8467 20.8699C22.3674 20.8699 21.9783 20.4866 21.9783 20.0149C21.9783 19.5432 22.3674 19.1592 22.8467 19.1592C23.3281 19.1592 23.7171 19.5432 23.7171 20.0149C23.7171 20.4866 23.3281 20.8699 22.8467 20.8699ZM23.8778 21.8847C23.8778 22.3559 24.2669 22.7367 24.7462 22.7367C25.2276 22.7367 25.6166 22.3559 25.6166 21.8847C25.6166 21.4098 25.2275 21.0297 24.7462 21.0297C24.2669 21.0297 23.8778 21.4097 23.8778 21.8847ZM24.7462 19.0007C24.2669 19.0007 23.8778 18.6177 23.8778 18.1459C23.8778 17.6742 24.2669 17.2902 24.7462 17.2902C25.2275 17.2902 25.6166 17.6742 25.6166 18.1459C25.6166 18.6177 25.2276 19.0007 24.7462 19.0007ZM25.7777 20.0149C25.7777 20.4866 26.1667 20.8699 26.6456 20.8699C27.125 20.8699 27.514 20.4866 27.514 20.0149C27.514 19.5432 27.125 19.1592 26.6456 19.1592C26.1667 19.1592 25.7777 19.5432 25.7777 20.0149Z" fill="white"/>
</svg>
