<svg width="274" height="568" viewBox="0 0 274 568" fill="none" xmlns="http://www.w3.org/2000/svg">
<rect width="274" height="568" rx="10" fill="#483EFF"/>
<mask id="mask0_24146_874" style="mask-type:luminance" maskUnits="userSpaceOnUse" x="0" y="0" width="274" height="568">
<rect width="274" height="568" rx="10" fill="white"/>
</mask>
<g mask="url(#mask0_24146_874)">
<path fill-rule="evenodd" clip-rule="evenodd" d="M-34.6922 543.101C3.24686 632.538 168.767 685.017 211.961 612.52C255.155 540.023 145.862 526.867 107.226 451.951C68.5909 377.035 38.5691 330.277 -17.2557 347.344C-73.0805 364.412 -72.6313 453.664 -34.6922 543.101Z" fill="#6259FF"/>
<path fill-rule="evenodd" clip-rule="evenodd" d="M233.095 601.153C293.774 572.875 325.934 457.627 274.97 429.625C224.005 401.622 217.573 477.204 166.911 505.612C116.249 534.02 84.7711 555.819 97.8671 593.853C110.963 631.887 172.416 629.431 233.095 601.153Z" fill="#F9818E"/>
<path d="M165.305 469.097L175.912 458.291" stroke="white" stroke-width="5" stroke-linecap="round" stroke-linejoin="bevel"/>
<path d="M209.461 474.581L196.955 464.078" stroke="white" stroke-width="5" stroke-linecap="round" stroke-linejoin="bevel"/>
<path d="M187.56 488.991L180.652 503.789" stroke="white" stroke-width="5" stroke-linecap="round" stroke-linejoin="bevel"/>
<path d="M0.304688 546.891C37.3078 546.891 67.3047 516.894 67.3047 479.891C67.3047 442.888 37.3078 412.891 0.304688 412.891C-36.6984 412.891 -66.6953 442.888 -66.6953 479.891C-66.6953 516.894 -36.6984 546.891 0.304688 546.891Z" fill="#FFAF7E"/>
</g>
<rect x="32" y="40" width="33" height="33" rx="16.5" fill="#BEE2FD"/>
<path d="M45.5015 54.314C45.7722 54.202 46.0522 54.076 46.3415 53.936C46.6402 53.7867 46.9295 53.628 47.2095 53.46C47.4895 53.2827 47.7555 53.1007 48.0075 52.914C48.2688 52.718 48.5022 52.5127 48.7075 52.298H50.1635V62H48.0775V55.014C47.7975 55.2007 47.4848 55.3733 47.1395 55.532C46.7942 55.6813 46.4582 55.812 46.1315 55.924L45.5015 54.314Z" fill="#022959"/>
<path d="M83.964 51.172C85.18 51.172 85.788 50.756 85.788 49.924C85.788 49.668 85.732 49.452 85.62 49.276C85.516 49.092 85.372 48.936 85.188 48.808C85.004 48.672 84.792 48.556 84.552 48.46C84.32 48.364 84.072 48.268 83.808 48.172C83.504 48.068 83.216 47.952 82.944 47.824C82.672 47.688 82.436 47.532 82.236 47.356C82.036 47.172 81.876 46.956 81.756 46.708C81.644 46.46 81.588 46.16 81.588 45.808C81.588 45.08 81.836 44.512 82.332 44.104C82.828 43.696 83.512 43.492 84.384 43.492C84.888 43.492 85.344 43.548 85.752 43.66C86.168 43.764 86.472 43.88 86.664 44.008L86.292 44.956C86.124 44.852 85.872 44.752 85.536 44.656C85.208 44.552 84.824 44.5 84.384 44.5C84.16 44.5 83.952 44.524 83.76 44.572C83.568 44.62 83.4 44.692 83.256 44.788C83.112 44.884 82.996 45.008 82.908 45.16C82.828 45.304 82.788 45.476 82.788 45.676C82.788 45.9 82.832 46.088 82.92 46.24C83.008 46.392 83.132 46.528 83.292 46.648C83.452 46.76 83.636 46.864 83.844 46.96C84.06 47.056 84.296 47.152 84.552 47.248C84.912 47.392 85.24 47.536 85.536 47.68C85.84 47.824 86.1 47.996 86.316 48.196C86.54 48.396 86.712 48.636 86.832 48.916C86.952 49.188 87.012 49.52 87.012 49.912C87.012 50.64 86.744 51.2 86.208 51.592C85.68 51.984 84.932 52.18 83.964 52.18C83.636 52.18 83.332 52.156 83.052 52.108C82.78 52.068 82.536 52.02 82.32 51.964C82.104 51.9 81.916 51.836 81.756 51.772C81.604 51.7 81.484 51.64 81.396 51.592L81.744 50.632C81.928 50.736 82.208 50.852 82.584 50.98C82.96 51.108 83.42 51.172 83.964 51.172ZM93.9747 43.684V44.692H91.3587V52H90.1947V44.692H87.5787V43.684H93.9747ZM95.2039 52V43.684H100.28V44.68H96.3679V47.152H99.8479V48.124H96.3679V51.004H100.58V52H95.2039ZM104.267 43.6C105.435 43.6 106.331 43.824 106.955 44.272C107.587 44.712 107.903 45.372 107.903 46.252C107.903 46.732 107.815 47.144 107.639 47.488C107.471 47.824 107.223 48.1 106.895 48.316C106.575 48.524 106.183 48.676 105.719 48.772C105.255 48.868 104.731 48.916 104.147 48.916H103.223V52H102.059V43.804C102.387 43.724 102.751 43.672 103.151 43.648C103.559 43.616 103.931 43.6 104.267 43.6ZM104.363 44.62C103.867 44.62 103.487 44.632 103.223 44.656V47.92H104.099C104.499 47.92 104.859 47.896 105.179 47.848C105.499 47.792 105.767 47.704 105.983 47.584C106.207 47.456 106.379 47.284 106.499 47.068C106.619 46.852 106.679 46.576 106.679 46.24C106.679 45.92 106.615 45.656 106.487 45.448C106.367 45.24 106.199 45.076 105.983 44.956C105.775 44.828 105.531 44.74 105.251 44.692C104.971 44.644 104.675 44.62 104.363 44.62ZM112.221 45.4C112.677 45.224 113.121 45 113.553 44.728C113.985 44.448 114.381 44.1 114.741 43.684H115.533V52H114.417V45.232C114.321 45.32 114.201 45.412 114.057 45.508C113.921 45.604 113.769 45.696 113.601 45.784C113.441 45.872 113.269 45.956 113.085 46.036C112.909 46.116 112.737 46.184 112.569 46.24L112.221 45.4Z" fill="#ABBCFF"/>
<path d="M85.676 63.288C86.068 62.6253 86.4413 61.9627 86.796 61.3C87.1507 60.6373 87.4773 59.97 87.776 59.298H90.184C89.652 60.3433 89.1013 61.356 88.532 62.336C87.9627 63.316 87.3607 64.3007 86.726 65.29V69H84.542V65.318C83.9073 64.3287 83.3007 63.3393 82.722 62.35C82.1527 61.3607 81.602 60.3433 81.07 59.298H83.604C83.9027 59.97 84.2247 60.6373 84.57 61.3C84.9153 61.9627 85.284 62.6253 85.676 63.288ZM93.581 64.142C93.581 64.618 93.637 65.0473 93.749 65.43C93.8703 65.8127 94.0383 66.144 94.253 66.424C94.477 66.6947 94.7476 66.9047 95.065 67.054C95.3823 67.2033 95.7463 67.278 96.157 67.278C96.5583 67.278 96.9176 67.2033 97.235 67.054C97.5616 66.9047 97.8323 66.6947 98.047 66.424C98.271 66.144 98.439 65.8127 98.551 65.43C98.6723 65.0473 98.733 64.618 98.733 64.142C98.733 63.666 98.6723 63.2367 98.551 62.854C98.439 62.462 98.271 62.1307 98.047 61.86C97.8323 61.58 97.5616 61.3653 97.235 61.216C96.9176 61.0667 96.5583 60.992 96.157 60.992C95.7463 60.992 95.3823 61.0713 95.065 61.23C94.7476 61.3793 94.477 61.594 94.253 61.874C94.0383 62.1447 93.8703 62.476 93.749 62.868C93.637 63.2507 93.581 63.6753 93.581 64.142ZM100.987 64.142C100.987 64.9727 100.861 65.7053 100.609 66.34C100.366 66.9653 100.03 67.4927 99.601 67.922C99.1716 68.342 98.6583 68.6593 98.061 68.874C97.473 69.0887 96.8383 69.196 96.157 69.196C95.4943 69.196 94.869 69.0887 94.281 68.874C93.693 68.6593 93.1796 68.342 92.741 67.922C92.3023 67.4927 91.957 66.9653 91.705 66.34C91.453 65.7053 91.327 64.9727 91.327 64.142C91.327 63.3113 91.4576 62.5833 91.719 61.958C91.9803 61.3233 92.3303 60.7913 92.769 60.362C93.217 59.9327 93.7303 59.6107 94.309 59.396C94.897 59.1813 95.513 59.074 96.157 59.074C96.8196 59.074 97.445 59.1813 98.033 59.396C98.621 59.6107 99.1343 59.9327 99.573 60.362C100.012 60.7913 100.357 61.3233 100.609 61.958C100.861 62.5833 100.987 63.3113 100.987 64.142ZM107.602 69.196C106.92 69.196 106.332 69.1027 105.838 68.916C105.343 68.72 104.932 68.454 104.606 68.118C104.288 67.7727 104.05 67.3667 103.892 66.9C103.742 66.424 103.668 65.9013 103.668 65.332V59.298H105.852V65.15C105.852 65.542 105.894 65.878 105.978 66.158C106.071 66.4287 106.192 66.6527 106.342 66.83C106.5 66.998 106.687 67.1193 106.902 67.194C107.126 67.2687 107.368 67.306 107.63 67.306C108.162 67.306 108.591 67.1427 108.918 66.816C109.254 66.4893 109.422 65.934 109.422 65.15V59.298H111.606V65.332C111.606 65.9013 111.526 66.424 111.368 66.9C111.209 67.376 110.966 67.7867 110.64 68.132C110.313 68.468 109.898 68.7293 109.394 68.916C108.89 69.1027 108.292 69.196 107.602 69.196ZM117.548 59.186C119.004 59.186 120.119 59.4473 120.894 59.97C121.669 60.4833 122.056 61.286 122.056 62.378C122.056 63.0593 121.897 63.6147 121.58 64.044C121.272 64.464 120.824 64.7953 120.236 65.038C120.432 65.2807 120.637 65.5607 120.852 65.878C121.067 66.186 121.277 66.5127 121.482 66.858C121.697 67.194 121.902 67.5487 122.098 67.922C122.294 68.286 122.476 68.6453 122.644 69H120.194C120.017 68.6827 119.835 68.3607 119.648 68.034C119.471 67.7073 119.284 67.39 119.088 67.082C118.901 66.774 118.715 66.4847 118.528 66.214C118.341 65.934 118.155 65.682 117.968 65.458H116.89V69H114.706V59.438C115.182 59.3447 115.672 59.2793 116.176 59.242C116.689 59.2047 117.147 59.186 117.548 59.186ZM117.674 61.048C117.515 61.048 117.371 61.0527 117.24 61.062C117.119 61.0713 117.002 61.0807 116.89 61.09V63.722H117.506C118.327 63.722 118.915 63.6193 119.27 63.414C119.625 63.2087 119.802 62.8587 119.802 62.364C119.802 61.888 119.62 61.552 119.256 61.356C118.901 61.1507 118.374 61.048 117.674 61.048ZM129.407 59.298H131.591V69H129.407V59.298ZM141.347 69C140.721 67.8893 140.045 66.7927 139.317 65.71C138.589 64.6273 137.814 63.6053 136.993 62.644V69H134.837V59.298H136.615C136.923 59.606 137.263 59.984 137.637 60.432C138.01 60.88 138.388 61.3607 138.771 61.874C139.163 62.378 139.55 62.9053 139.933 63.456C140.315 63.9973 140.675 64.52 141.011 65.024V59.298H143.181V69H141.347ZM146.419 69V59.298H152.915V61.132H148.603V63.162H152.439V64.996H148.603V69H146.419ZM157.183 64.142C157.183 64.618 157.239 65.0473 157.351 65.43C157.472 65.8127 157.64 66.144 157.855 66.424C158.079 66.6947 158.349 66.9047 158.667 67.054C158.984 67.2033 159.348 67.278 159.759 67.278C160.16 67.278 160.519 67.2033 160.837 67.054C161.163 66.9047 161.434 66.6947 161.649 66.424C161.873 66.144 162.041 65.8127 162.153 65.43C162.274 65.0473 162.335 64.618 162.335 64.142C162.335 63.666 162.274 63.2367 162.153 62.854C162.041 62.462 161.873 62.1307 161.649 61.86C161.434 61.58 161.163 61.3653 160.837 61.216C160.519 61.0667 160.16 60.992 159.759 60.992C159.348 60.992 158.984 61.0713 158.667 61.23C158.349 61.3793 158.079 61.594 157.855 61.874C157.64 62.1447 157.472 62.476 157.351 62.868C157.239 63.2507 157.183 63.6753 157.183 64.142ZM164.589 64.142C164.589 64.9727 164.463 65.7053 164.211 66.34C163.968 66.9653 163.632 67.4927 163.203 67.922C162.773 68.342 162.26 68.6593 161.663 68.874C161.075 69.0887 160.44 69.196 159.759 69.196C159.096 69.196 158.471 69.0887 157.883 68.874C157.295 68.6593 156.781 68.342 156.343 67.922C155.904 67.4927 155.559 66.9653 155.307 66.34C155.055 65.7053 154.929 64.9727 154.929 64.142C154.929 63.3113 155.059 62.5833 155.321 61.958C155.582 61.3233 155.932 60.7913 156.371 60.362C156.819 59.9327 157.332 59.6107 157.911 59.396C158.499 59.1813 159.115 59.074 159.759 59.074C160.421 59.074 161.047 59.1813 161.635 59.396C162.223 59.6107 162.736 59.9327 163.175 60.362C163.613 60.7913 163.959 61.3233 164.211 61.958C164.463 62.5833 164.589 63.3113 164.589 64.142Z" fill="white"/>
<rect x="32.5" y="105.5" width="32" height="32" rx="16" stroke="white"/>
<path d="M51.4655 119.846C51.4655 120.201 51.3955 120.541 51.2555 120.868C51.1155 121.195 50.9335 121.512 50.7095 121.82C50.4855 122.119 50.2335 122.408 49.9535 122.688C49.6735 122.968 49.3982 123.234 49.1275 123.486C48.9875 123.617 48.8335 123.766 48.6655 123.934C48.5068 124.093 48.3528 124.256 48.2035 124.424C48.0542 124.592 47.9188 124.751 47.7975 124.9C47.6855 125.04 47.6155 125.157 47.5875 125.25H51.7595V127H45.2915C45.2728 126.897 45.2635 126.767 45.2635 126.608C45.2635 126.449 45.2635 126.337 45.2635 126.272C45.2635 125.824 45.3335 125.413 45.4735 125.04C45.6228 124.667 45.8142 124.321 46.0475 124.004C46.2808 123.677 46.5422 123.374 46.8315 123.094C47.1302 122.814 47.4242 122.534 47.7135 122.254C47.9375 122.039 48.1475 121.839 48.3435 121.652C48.5395 121.456 48.7122 121.269 48.8615 121.092C49.0108 120.905 49.1275 120.723 49.2115 120.546C49.2955 120.359 49.3375 120.173 49.3375 119.986C49.3375 119.575 49.2208 119.286 48.9875 119.118C48.7542 118.95 48.4648 118.866 48.1195 118.866C47.8675 118.866 47.6295 118.908 47.4055 118.992C47.1908 119.067 46.9902 119.16 46.8035 119.272C46.6262 119.375 46.4722 119.482 46.3415 119.594C46.2108 119.697 46.1128 119.781 46.0475 119.846L45.0115 118.39C45.4222 118.007 45.8982 117.695 46.4395 117.452C46.9902 117.2 47.5782 117.074 48.2035 117.074C48.7728 117.074 49.2628 117.139 49.6735 117.27C50.0842 117.401 50.4202 117.587 50.6815 117.83C50.9522 118.063 51.1482 118.353 51.2695 118.698C51.4002 119.034 51.4655 119.417 51.4655 119.846Z" fill="white"/>
<path d="M83.964 116.172C85.18 116.172 85.788 115.756 85.788 114.924C85.788 114.668 85.732 114.452 85.62 114.276C85.516 114.092 85.372 113.936 85.188 113.808C85.004 113.672 84.792 113.556 84.552 113.46C84.32 113.364 84.072 113.268 83.808 113.172C83.504 113.068 83.216 112.952 82.944 112.824C82.672 112.688 82.436 112.532 82.236 112.356C82.036 112.172 81.876 111.956 81.756 111.708C81.644 111.46 81.588 111.16 81.588 110.808C81.588 110.08 81.836 109.512 82.332 109.104C82.828 108.696 83.512 108.492 84.384 108.492C84.888 108.492 85.344 108.548 85.752 108.66C86.168 108.764 86.472 108.88 86.664 109.008L86.292 109.956C86.124 109.852 85.872 109.752 85.536 109.656C85.208 109.552 84.824 109.5 84.384 109.5C84.16 109.5 83.952 109.524 83.76 109.572C83.568 109.62 83.4 109.692 83.256 109.788C83.112 109.884 82.996 110.008 82.908 110.16C82.828 110.304 82.788 110.476 82.788 110.676C82.788 110.9 82.832 111.088 82.92 111.24C83.008 111.392 83.132 111.528 83.292 111.648C83.452 111.76 83.636 111.864 83.844 111.96C84.06 112.056 84.296 112.152 84.552 112.248C84.912 112.392 85.24 112.536 85.536 112.68C85.84 112.824 86.1 112.996 86.316 113.196C86.54 113.396 86.712 113.636 86.832 113.916C86.952 114.188 87.012 114.52 87.012 114.912C87.012 115.64 86.744 116.2 86.208 116.592C85.68 116.984 84.932 117.18 83.964 117.18C83.636 117.18 83.332 117.156 83.052 117.108C82.78 117.068 82.536 117.02 82.32 116.964C82.104 116.9 81.916 116.836 81.756 116.772C81.604 116.7 81.484 116.64 81.396 116.592L81.744 115.632C81.928 115.736 82.208 115.852 82.584 115.98C82.96 116.108 83.42 116.172 83.964 116.172ZM93.9747 108.684V109.692H91.3587V117H90.1947V109.692H87.5787V108.684H93.9747ZM95.2039 117V108.684H100.28V109.68H96.3679V112.152H99.8479V113.124H96.3679V116.004H100.58V117H95.2039ZM104.267 108.6C105.435 108.6 106.331 108.824 106.955 109.272C107.587 109.712 107.903 110.372 107.903 111.252C107.903 111.732 107.815 112.144 107.639 112.488C107.471 112.824 107.223 113.1 106.895 113.316C106.575 113.524 106.183 113.676 105.719 113.772C105.255 113.868 104.731 113.916 104.147 113.916H103.223V117H102.059V108.804C102.387 108.724 102.751 108.672 103.151 108.648C103.559 108.616 103.931 108.6 104.267 108.6ZM104.363 109.62C103.867 109.62 103.487 109.632 103.223 109.656V112.92H104.099C104.499 112.92 104.859 112.896 105.179 112.848C105.499 112.792 105.767 112.704 105.983 112.584C106.207 112.456 106.379 112.284 106.499 112.068C106.619 111.852 106.679 111.576 106.679 111.24C106.679 110.92 106.615 110.656 106.487 110.448C106.367 110.24 106.199 110.076 105.983 109.956C105.775 109.828 105.531 109.74 105.251 109.692C104.971 109.644 104.675 109.62 104.363 109.62ZM116.709 110.808C116.709 111.096 116.649 111.376 116.529 111.648C116.417 111.912 116.265 112.176 116.073 112.44C115.881 112.696 115.665 112.952 115.425 113.208C115.185 113.456 114.945 113.7 114.705 113.94C114.569 114.076 114.409 114.236 114.225 114.42C114.049 114.604 113.881 114.796 113.721 114.996C113.561 115.196 113.425 115.388 113.313 115.572C113.209 115.756 113.157 115.916 113.157 116.052H116.985V117H111.945C111.937 116.952 111.933 116.904 111.933 116.856C111.933 116.808 111.933 116.764 111.933 116.724C111.933 116.348 111.993 116 112.113 115.68C112.241 115.352 112.405 115.044 112.605 114.756C112.805 114.468 113.029 114.196 113.277 113.94C113.525 113.684 113.769 113.436 114.009 113.196C114.209 113.004 114.397 112.816 114.573 112.632C114.757 112.44 114.917 112.252 115.053 112.068C115.197 111.876 115.309 111.68 115.389 111.48C115.477 111.28 115.521 111.068 115.521 110.844C115.521 110.604 115.481 110.4 115.401 110.232C115.329 110.064 115.229 109.924 115.101 109.812C114.973 109.7 114.821 109.62 114.645 109.572C114.477 109.516 114.297 109.488 114.105 109.488C113.873 109.488 113.661 109.52 113.469 109.584C113.277 109.648 113.105 109.724 112.953 109.812C112.801 109.892 112.673 109.98 112.569 110.076C112.465 110.164 112.385 110.232 112.329 110.28L111.777 109.488C111.849 109.408 111.957 109.312 112.101 109.2C112.245 109.08 112.417 108.968 112.617 108.864C112.817 108.76 113.041 108.672 113.289 108.6C113.537 108.528 113.805 108.492 114.093 108.492C114.965 108.492 115.617 108.696 116.049 109.104C116.489 109.504 116.709 110.072 116.709 110.808Z" fill="#ABBCFF"/>
<path d="M84.766 132.334C85.074 132.334 85.326 132.311 85.522 132.264C85.7273 132.208 85.8907 132.138 86.012 132.054C86.1333 131.961 86.2173 131.853 86.264 131.732C86.3107 131.611 86.334 131.475 86.334 131.326C86.334 131.009 86.1847 130.747 85.886 130.542C85.5873 130.327 85.074 130.099 84.346 129.856C84.0287 129.744 83.7113 129.618 83.394 129.478C83.0767 129.329 82.792 129.147 82.54 128.932C82.288 128.708 82.0827 128.442 81.924 128.134C81.7653 127.817 81.686 127.434 81.686 126.986C81.686 126.538 81.77 126.137 81.938 125.782C82.106 125.418 82.344 125.11 82.652 124.858C82.96 124.606 83.3333 124.415 83.772 124.284C84.2107 124.144 84.7053 124.074 85.256 124.074C85.9093 124.074 86.474 124.144 86.95 124.284C87.426 124.424 87.818 124.578 88.126 124.746L87.496 126.468C87.2253 126.328 86.922 126.207 86.586 126.104C86.2593 125.992 85.8627 125.936 85.396 125.936C84.8733 125.936 84.4953 126.011 84.262 126.16C84.038 126.3 83.926 126.519 83.926 126.818C83.926 126.995 83.968 127.145 84.052 127.266C84.136 127.387 84.2527 127.499 84.402 127.602C84.5607 127.695 84.738 127.784 84.934 127.868C85.1393 127.943 85.3633 128.022 85.606 128.106C86.11 128.293 86.5487 128.479 86.922 128.666C87.2953 128.843 87.6033 129.053 87.846 129.296C88.098 129.539 88.2847 129.823 88.406 130.15C88.5273 130.477 88.588 130.873 88.588 131.34C88.588 132.245 88.2707 132.95 87.636 133.454C87.0013 133.949 86.0447 134.196 84.766 134.196C84.3367 134.196 83.9493 134.168 83.604 134.112C83.2587 134.065 82.9507 134.005 82.68 133.93C82.4187 133.855 82.19 133.776 81.994 133.692C81.8073 133.608 81.6487 133.529 81.518 133.454L82.134 131.718C82.4233 131.877 82.778 132.021 83.198 132.152C83.6273 132.273 84.15 132.334 84.766 132.334ZM91.2684 134V124.298H97.8204V126.132H93.4524V128.036H97.3304V129.828H93.4524V132.166H98.1424V134H91.2684ZM107.241 132.124V134H100.759V124.298H102.943V132.124H107.241ZM109.647 134V124.298H116.199V126.132H111.831V128.036H115.709V129.828H111.831V132.166H116.521V134H109.647ZM123.562 134.196C121.984 134.196 120.78 133.757 119.95 132.88C119.128 132.003 118.718 130.757 118.718 129.142C118.718 128.339 118.844 127.625 119.096 127C119.348 126.365 119.693 125.833 120.132 125.404C120.57 124.965 121.093 124.634 121.7 124.41C122.306 124.186 122.964 124.074 123.674 124.074C124.084 124.074 124.458 124.107 124.794 124.172C125.13 124.228 125.424 124.298 125.676 124.382C125.928 124.457 126.138 124.536 126.306 124.62C126.474 124.704 126.595 124.769 126.67 124.816L126.04 126.58C125.741 126.421 125.391 126.286 124.99 126.174C124.598 126.062 124.15 126.006 123.646 126.006C123.31 126.006 122.978 126.062 122.652 126.174C122.334 126.286 122.05 126.468 121.798 126.72C121.555 126.963 121.359 127.28 121.21 127.672C121.06 128.064 120.986 128.54 120.986 129.1C120.986 129.548 121.032 129.968 121.126 130.36C121.228 130.743 121.387 131.074 121.602 131.354C121.826 131.634 122.115 131.858 122.47 132.026C122.824 132.185 123.254 132.264 123.758 132.264C124.075 132.264 124.36 132.245 124.612 132.208C124.864 132.171 125.088 132.129 125.284 132.082C125.48 132.026 125.652 131.965 125.802 131.9C125.951 131.835 126.086 131.774 126.208 131.718L126.81 133.468C126.502 133.655 126.068 133.823 125.508 133.972C124.948 134.121 124.299 134.196 123.562 134.196ZM136.712 124.298V126.16H133.786V134H131.602V126.16H128.676V124.298H136.712ZM146.391 124.186C147.838 124.186 148.949 124.443 149.723 124.956C150.498 125.46 150.885 126.291 150.885 127.448C150.885 128.615 150.493 129.459 149.709 129.982C148.925 130.495 147.805 130.752 146.349 130.752H145.663V134H143.479V124.438C143.955 124.345 144.459 124.279 144.991 124.242C145.523 124.205 145.99 124.186 146.391 124.186ZM146.531 126.048C146.373 126.048 146.214 126.053 146.055 126.062C145.906 126.071 145.775 126.081 145.663 126.09V128.89H146.349C147.105 128.89 147.675 128.787 148.057 128.582C148.44 128.377 148.631 127.994 148.631 127.434C148.631 127.163 148.58 126.939 148.477 126.762C148.384 126.585 148.244 126.445 148.057 126.342C147.88 126.23 147.661 126.155 147.399 126.118C147.138 126.071 146.849 126.048 146.531 126.048ZM159.971 132.124V134H153.489V124.298H155.673V132.124H159.971ZM169.311 134C169.209 133.664 169.092 133.319 168.961 132.964C168.84 132.609 168.719 132.255 168.597 131.9H164.817C164.696 132.255 164.57 132.609 164.439 132.964C164.318 133.319 164.206 133.664 164.103 134H161.835C162.199 132.955 162.545 131.989 162.871 131.102C163.198 130.215 163.515 129.38 163.823 128.596C164.141 127.812 164.449 127.07 164.747 126.37C165.055 125.661 165.373 124.97 165.699 124.298H167.785C168.103 124.97 168.415 125.661 168.723 126.37C169.031 127.07 169.339 127.812 169.647 128.596C169.965 129.38 170.287 130.215 170.613 131.102C170.94 131.989 171.285 132.955 171.649 134H169.311ZM166.693 126.496C166.647 126.636 166.577 126.827 166.483 127.07C166.39 127.313 166.283 127.593 166.161 127.91C166.04 128.227 165.905 128.577 165.755 128.96C165.615 129.343 165.471 129.744 165.321 130.164H168.079C167.93 129.744 167.785 129.343 167.645 128.96C167.505 128.577 167.37 128.227 167.239 127.91C167.118 127.593 167.011 127.313 166.917 127.07C166.824 126.827 166.749 126.636 166.693 126.496ZM180.415 134C179.79 132.889 179.113 131.793 178.385 130.71C177.657 129.627 176.882 128.605 176.061 127.644V134H173.905V124.298H175.683C175.991 124.606 176.332 124.984 176.705 125.432C177.078 125.88 177.456 126.361 177.839 126.874C178.231 127.378 178.618 127.905 179.001 128.456C179.384 128.997 179.743 129.52 180.079 130.024V124.298H182.249V134H180.415Z" fill="white"/>
<rect x="32.5" y="170.5" width="32" height="32" rx="16" stroke="white"/>
<path d="M47.7135 192.21C47.4615 192.21 47.1955 192.191 46.9155 192.154C46.6355 192.126 46.3648 192.084 46.1035 192.028C45.8422 191.972 45.6042 191.911 45.3895 191.846C45.1748 191.781 45.0068 191.72 44.8855 191.664L45.2915 189.928C45.5342 190.031 45.8422 190.143 46.2155 190.264C46.5982 190.376 47.0695 190.432 47.6295 190.432C48.2735 190.432 48.7448 190.311 49.0435 190.068C49.3422 189.825 49.4915 189.499 49.4915 189.088C49.4915 188.836 49.4355 188.626 49.3235 188.458C49.2208 188.281 49.0762 188.141 48.8895 188.038C48.7028 187.926 48.4788 187.851 48.2175 187.814C47.9655 187.767 47.6948 187.744 47.4055 187.744H46.5935V186.064H47.5175C47.7228 186.064 47.9188 186.045 48.1055 186.008C48.3015 185.971 48.4742 185.91 48.6235 185.826C48.7728 185.733 48.8895 185.611 48.9735 185.462C49.0668 185.303 49.1135 185.107 49.1135 184.874C49.1135 184.697 49.0762 184.543 49.0015 184.412C48.9268 184.281 48.8288 184.174 48.7075 184.09C48.5955 184.006 48.4602 183.945 48.3015 183.908C48.1522 183.861 47.9982 183.838 47.8395 183.838C47.4382 183.838 47.0648 183.899 46.7195 184.02C46.3835 184.141 46.0755 184.291 45.7955 184.468L45.0535 182.942C45.2028 182.849 45.3755 182.751 45.5715 182.648C45.7768 182.545 46.0008 182.452 46.2435 182.368C46.4862 182.284 46.7428 182.214 47.0135 182.158C47.2935 182.102 47.5875 182.074 47.8955 182.074C48.4648 182.074 48.9548 182.144 49.3655 182.284C49.7855 182.415 50.1308 182.606 50.4015 182.858C50.6722 183.101 50.8728 183.39 51.0035 183.726C51.1342 184.053 51.1995 184.412 51.1995 184.804C51.1995 185.187 51.0922 185.56 50.8775 185.924C50.6628 186.279 50.3735 186.549 50.0095 186.736C50.5135 186.941 50.9008 187.249 51.1715 187.66C51.4515 188.061 51.5915 188.547 51.5915 189.116C51.5915 189.564 51.5168 189.979 51.3675 190.362C51.2182 190.735 50.9848 191.062 50.6675 191.342C50.3502 191.613 49.9442 191.827 49.4495 191.986C48.9642 192.135 48.3855 192.21 47.7135 192.21Z" fill="white"/>
<path d="M83.964 181.172C85.18 181.172 85.788 180.756 85.788 179.924C85.788 179.668 85.732 179.452 85.62 179.276C85.516 179.092 85.372 178.936 85.188 178.808C85.004 178.672 84.792 178.556 84.552 178.46C84.32 178.364 84.072 178.268 83.808 178.172C83.504 178.068 83.216 177.952 82.944 177.824C82.672 177.688 82.436 177.532 82.236 177.356C82.036 177.172 81.876 176.956 81.756 176.708C81.644 176.46 81.588 176.16 81.588 175.808C81.588 175.08 81.836 174.512 82.332 174.104C82.828 173.696 83.512 173.492 84.384 173.492C84.888 173.492 85.344 173.548 85.752 173.66C86.168 173.764 86.472 173.88 86.664 174.008L86.292 174.956C86.124 174.852 85.872 174.752 85.536 174.656C85.208 174.552 84.824 174.5 84.384 174.5C84.16 174.5 83.952 174.524 83.76 174.572C83.568 174.62 83.4 174.692 83.256 174.788C83.112 174.884 82.996 175.008 82.908 175.16C82.828 175.304 82.788 175.476 82.788 175.676C82.788 175.9 82.832 176.088 82.92 176.24C83.008 176.392 83.132 176.528 83.292 176.648C83.452 176.76 83.636 176.864 83.844 176.96C84.06 177.056 84.296 177.152 84.552 177.248C84.912 177.392 85.24 177.536 85.536 177.68C85.84 177.824 86.1 177.996 86.316 178.196C86.54 178.396 86.712 178.636 86.832 178.916C86.952 179.188 87.012 179.52 87.012 179.912C87.012 180.64 86.744 181.2 86.208 181.592C85.68 181.984 84.932 182.18 83.964 182.18C83.636 182.18 83.332 182.156 83.052 182.108C82.78 182.068 82.536 182.02 82.32 181.964C82.104 181.9 81.916 181.836 81.756 181.772C81.604 181.7 81.484 181.64 81.396 181.592L81.744 180.632C81.928 180.736 82.208 180.852 82.584 180.98C82.96 181.108 83.42 181.172 83.964 181.172ZM93.9747 173.684V174.692H91.3587V182H90.1947V174.692H87.5787V173.684H93.9747ZM95.2039 182V173.684H100.28V174.68H96.3679V177.152H99.8479V178.124H96.3679V181.004H100.58V182H95.2039ZM104.267 173.6C105.435 173.6 106.331 173.824 106.955 174.272C107.587 174.712 107.903 175.372 107.903 176.252C107.903 176.732 107.815 177.144 107.639 177.488C107.471 177.824 107.223 178.1 106.895 178.316C106.575 178.524 106.183 178.676 105.719 178.772C105.255 178.868 104.731 178.916 104.147 178.916H103.223V182H102.059V173.804C102.387 173.724 102.751 173.672 103.151 173.648C103.559 173.616 103.931 173.6 104.267 173.6ZM104.363 174.62C103.867 174.62 103.487 174.632 103.223 174.656V177.92H104.099C104.499 177.92 104.859 177.896 105.179 177.848C105.499 177.792 105.767 177.704 105.983 177.584C106.207 177.456 106.379 177.284 106.499 177.068C106.619 176.852 106.679 176.576 106.679 176.24C106.679 175.92 106.615 175.656 106.487 175.448C106.367 175.24 106.199 175.076 105.983 174.956C105.775 174.828 105.531 174.74 105.251 174.692C104.971 174.644 104.675 174.62 104.363 174.62ZM113.817 181.184C114.529 181.184 115.037 181.044 115.341 180.764C115.653 180.484 115.809 180.108 115.809 179.636C115.809 179.332 115.745 179.076 115.617 178.868C115.489 178.66 115.321 178.496 115.113 178.376C114.905 178.248 114.661 178.16 114.381 178.112C114.109 178.056 113.829 178.028 113.541 178.028H113.253V177.116H113.649C113.849 177.116 114.053 177.096 114.261 177.056C114.477 177.016 114.673 176.944 114.849 176.84C115.025 176.736 115.169 176.596 115.281 176.42C115.393 176.236 115.449 176.008 115.449 175.736C115.449 175.512 115.409 175.32 115.329 175.16C115.249 175 115.141 174.868 115.005 174.764C114.877 174.66 114.725 174.588 114.549 174.548C114.381 174.5 114.201 174.476 114.009 174.476C113.625 174.476 113.297 174.532 113.025 174.644C112.761 174.756 112.537 174.872 112.353 174.992L111.921 174.14C112.017 174.076 112.137 174.008 112.281 173.936C112.433 173.856 112.601 173.784 112.785 173.72C112.969 173.656 113.165 173.604 113.373 173.564C113.589 173.516 113.813 173.492 114.045 173.492C114.485 173.492 114.865 173.548 115.185 173.66C115.505 173.764 115.769 173.916 115.977 174.116C116.185 174.308 116.341 174.54 116.445 174.812C116.549 175.076 116.601 175.364 116.601 175.676C116.601 176.108 116.477 176.48 116.229 176.792C115.981 177.096 115.681 177.328 115.329 177.488C115.545 177.552 115.753 177.644 115.953 177.764C116.153 177.884 116.325 178.036 116.469 178.22C116.621 178.404 116.741 178.616 116.829 178.856C116.925 179.096 116.973 179.364 116.973 179.66C116.973 180.02 116.909 180.356 116.781 180.668C116.661 180.972 116.469 181.236 116.205 181.46C115.949 181.684 115.625 181.86 115.233 181.988C114.841 182.116 114.377 182.18 113.841 182.18C113.633 182.18 113.417 182.164 113.193 182.132C112.977 182.1 112.773 182.06 112.581 182.012C112.389 181.964 112.221 181.916 112.077 181.868C111.933 181.82 111.829 181.78 111.765 181.748L111.981 180.776C112.117 180.84 112.341 180.924 112.653 181.028C112.973 181.132 113.361 181.184 113.817 181.184Z" fill="#ABBCFF"/>
<path d="M88.616 199C88.5133 198.664 88.3967 198.319 88.266 197.964C88.1447 197.609 88.0233 197.255 87.902 196.9H84.122C84.0007 197.255 83.8747 197.609 83.744 197.964C83.6227 198.319 83.5107 198.664 83.408 199H81.14C81.504 197.955 81.8493 196.989 82.176 196.102C82.5027 195.215 82.82 194.38 83.128 193.596C83.4453 192.812 83.7533 192.07 84.052 191.37C84.36 190.661 84.6773 189.97 85.004 189.298H87.09C87.4073 189.97 87.72 190.661 88.028 191.37C88.336 192.07 88.644 192.812 88.952 193.596C89.2693 194.38 89.5913 195.215 89.918 196.102C90.2447 196.989 90.59 197.955 90.954 199H88.616ZM85.998 191.496C85.9513 191.636 85.8813 191.827 85.788 192.07C85.6947 192.313 85.5873 192.593 85.466 192.91C85.3447 193.227 85.2093 193.577 85.06 193.96C84.92 194.343 84.7753 194.744 84.626 195.164H87.384C87.2347 194.744 87.09 194.343 86.95 193.96C86.81 193.577 86.6747 193.227 86.544 192.91C86.4227 192.593 86.3153 192.313 86.222 192.07C86.1287 191.827 86.054 191.636 85.998 191.496ZM95.3938 197.222C95.4965 197.231 95.6132 197.241 95.7438 197.25C95.8838 197.25 96.0472 197.25 96.2338 197.25C97.3258 197.25 98.1332 196.975 98.6558 196.424C99.1878 195.873 99.4538 195.113 99.4538 194.142C99.4538 193.125 99.2018 192.355 98.6978 191.832C98.1938 191.309 97.3958 191.048 96.3038 191.048C96.1545 191.048 96.0005 191.053 95.8418 191.062C95.6832 191.062 95.5338 191.071 95.3938 191.09V197.222ZM101.708 194.142C101.708 194.982 101.577 195.715 101.316 196.34C101.055 196.965 100.681 197.483 100.196 197.894C99.7198 198.305 99.1365 198.613 98.4458 198.818C97.7552 199.023 96.9805 199.126 96.1218 199.126C95.7298 199.126 95.2725 199.107 94.7498 199.07C94.2272 199.042 93.7138 198.977 93.2098 198.874V189.424C93.7138 189.331 94.2365 189.27 94.7778 189.242C95.3285 189.205 95.7998 189.186 96.1918 189.186C97.0225 189.186 97.7738 189.279 98.4458 189.466C99.1272 189.653 99.7105 189.947 100.196 190.348C100.681 190.749 101.055 191.263 101.316 191.888C101.577 192.513 101.708 193.265 101.708 194.142ZM106.716 197.222C106.819 197.231 106.935 197.241 107.066 197.25C107.206 197.25 107.369 197.25 107.556 197.25C108.648 197.25 109.455 196.975 109.978 196.424C110.51 195.873 110.776 195.113 110.776 194.142C110.776 193.125 110.524 192.355 110.02 191.832C109.516 191.309 108.718 191.048 107.626 191.048C107.477 191.048 107.323 191.053 107.164 191.062C107.005 191.062 106.856 191.071 106.716 191.09V197.222ZM113.03 194.142C113.03 194.982 112.899 195.715 112.638 196.34C112.377 196.965 112.003 197.483 111.518 197.894C111.042 198.305 110.459 198.613 109.768 198.818C109.077 199.023 108.303 199.126 107.444 199.126C107.052 199.126 106.595 199.107 106.072 199.07C105.549 199.042 105.036 198.977 104.532 198.874V189.424C105.036 189.331 105.559 189.27 106.1 189.242C106.651 189.205 107.122 189.186 107.514 189.186C108.345 189.186 109.096 189.279 109.768 189.466C110.449 189.653 111.033 189.947 111.518 190.348C112.003 190.749 112.377 191.263 112.638 191.888C112.899 192.513 113.03 193.265 113.03 194.142ZM115.358 193.876H119.418V195.766H115.358V193.876ZM123.993 194.142C123.993 194.618 124.049 195.047 124.161 195.43C124.282 195.813 124.45 196.144 124.665 196.424C124.889 196.695 125.16 196.905 125.477 197.054C125.794 197.203 126.158 197.278 126.569 197.278C126.97 197.278 127.33 197.203 127.647 197.054C127.974 196.905 128.244 196.695 128.459 196.424C128.683 196.144 128.851 195.813 128.963 195.43C129.084 195.047 129.145 194.618 129.145 194.142C129.145 193.666 129.084 193.237 128.963 192.854C128.851 192.462 128.683 192.131 128.459 191.86C128.244 191.58 127.974 191.365 127.647 191.216C127.33 191.067 126.97 190.992 126.569 190.992C126.158 190.992 125.794 191.071 125.477 191.23C125.16 191.379 124.889 191.594 124.665 191.874C124.45 192.145 124.282 192.476 124.161 192.868C124.049 193.251 123.993 193.675 123.993 194.142ZM131.399 194.142C131.399 194.973 131.273 195.705 131.021 196.34C130.778 196.965 130.442 197.493 130.013 197.922C129.584 198.342 129.07 198.659 128.473 198.874C127.885 199.089 127.25 199.196 126.569 199.196C125.906 199.196 125.281 199.089 124.693 198.874C124.105 198.659 123.592 198.342 123.153 197.922C122.714 197.493 122.369 196.965 122.117 196.34C121.865 195.705 121.739 194.973 121.739 194.142C121.739 193.311 121.87 192.583 122.131 191.958C122.392 191.323 122.742 190.791 123.181 190.362C123.629 189.933 124.142 189.611 124.721 189.396C125.309 189.181 125.925 189.074 126.569 189.074C127.232 189.074 127.857 189.181 128.445 189.396C129.033 189.611 129.546 189.933 129.985 190.362C130.424 190.791 130.769 191.323 131.021 191.958C131.273 192.583 131.399 193.311 131.399 194.142ZM140.73 199C140.104 197.889 139.428 196.793 138.7 195.71C137.972 194.627 137.197 193.605 136.376 192.644V199H134.22V189.298H135.998C136.306 189.606 136.646 189.984 137.02 190.432C137.393 190.88 137.771 191.361 138.154 191.874C138.546 192.378 138.933 192.905 139.316 193.456C139.698 193.997 140.058 194.52 140.394 195.024V189.298H142.564V199H140.73ZM148.448 197.334C148.756 197.334 149.008 197.311 149.204 197.264C149.409 197.208 149.572 197.138 149.694 197.054C149.815 196.961 149.899 196.853 149.946 196.732C149.992 196.611 150.016 196.475 150.016 196.326C150.016 196.009 149.866 195.747 149.568 195.542C149.269 195.327 148.756 195.099 148.028 194.856C147.71 194.744 147.393 194.618 147.076 194.478C146.758 194.329 146.474 194.147 146.222 193.932C145.97 193.708 145.764 193.442 145.606 193.134C145.447 192.817 145.368 192.434 145.368 191.986C145.368 191.538 145.452 191.137 145.62 190.782C145.788 190.418 146.026 190.11 146.334 189.858C146.642 189.606 147.015 189.415 147.454 189.284C147.892 189.144 148.387 189.074 148.938 189.074C149.591 189.074 150.156 189.144 150.632 189.284C151.108 189.424 151.5 189.578 151.808 189.746L151.178 191.468C150.907 191.328 150.604 191.207 150.268 191.104C149.941 190.992 149.544 190.936 149.078 190.936C148.555 190.936 148.177 191.011 147.944 191.16C147.72 191.3 147.608 191.519 147.608 191.818C147.608 191.995 147.65 192.145 147.734 192.266C147.818 192.387 147.934 192.499 148.084 192.602C148.242 192.695 148.42 192.784 148.616 192.868C148.821 192.943 149.045 193.022 149.288 193.106C149.792 193.293 150.23 193.479 150.604 193.666C150.977 193.843 151.285 194.053 151.528 194.296C151.78 194.539 151.966 194.823 152.088 195.15C152.209 195.477 152.27 195.873 152.27 196.34C152.27 197.245 151.952 197.95 151.318 198.454C150.683 198.949 149.726 199.196 148.448 199.196C148.018 199.196 147.631 199.168 147.286 199.112C146.94 199.065 146.632 199.005 146.362 198.93C146.1 198.855 145.872 198.776 145.676 198.692C145.489 198.608 145.33 198.529 145.2 198.454L145.816 196.718C146.105 196.877 146.46 197.021 146.88 197.152C147.309 197.273 147.832 197.334 148.448 197.334Z" fill="white"/>
<rect x="32.5" y="235.5" width="32" height="32" rx="16" stroke="white"/>
<path d="M48.9875 249.846C48.6235 250.322 48.2362 250.84 47.8255 251.4C47.4148 251.96 47.0695 252.534 46.7895 253.122H48.9875V249.846ZM51.0315 247.298V253.122H52.0675V254.83H51.0315V257H48.9875V254.83H44.8015V253.304C45.0068 252.893 45.2635 252.431 45.5715 251.918C45.8795 251.395 46.2202 250.863 46.5935 250.322C46.9762 249.771 47.3775 249.235 47.7975 248.712C48.2175 248.189 48.6375 247.718 49.0575 247.298H51.0315Z" fill="white"/>
<path d="M83.964 246.172C85.18 246.172 85.788 245.756 85.788 244.924C85.788 244.668 85.732 244.452 85.62 244.276C85.516 244.092 85.372 243.936 85.188 243.808C85.004 243.672 84.792 243.556 84.552 243.46C84.32 243.364 84.072 243.268 83.808 243.172C83.504 243.068 83.216 242.952 82.944 242.824C82.672 242.688 82.436 242.532 82.236 242.356C82.036 242.172 81.876 241.956 81.756 241.708C81.644 241.46 81.588 241.16 81.588 240.808C81.588 240.08 81.836 239.512 82.332 239.104C82.828 238.696 83.512 238.492 84.384 238.492C84.888 238.492 85.344 238.548 85.752 238.66C86.168 238.764 86.472 238.88 86.664 239.008L86.292 239.956C86.124 239.852 85.872 239.752 85.536 239.656C85.208 239.552 84.824 239.5 84.384 239.5C84.16 239.5 83.952 239.524 83.76 239.572C83.568 239.62 83.4 239.692 83.256 239.788C83.112 239.884 82.996 240.008 82.908 240.16C82.828 240.304 82.788 240.476 82.788 240.676C82.788 240.9 82.832 241.088 82.92 241.24C83.008 241.392 83.132 241.528 83.292 241.648C83.452 241.76 83.636 241.864 83.844 241.96C84.06 242.056 84.296 242.152 84.552 242.248C84.912 242.392 85.24 242.536 85.536 242.68C85.84 242.824 86.1 242.996 86.316 243.196C86.54 243.396 86.712 243.636 86.832 243.916C86.952 244.188 87.012 244.52 87.012 244.912C87.012 245.64 86.744 246.2 86.208 246.592C85.68 246.984 84.932 247.18 83.964 247.18C83.636 247.18 83.332 247.156 83.052 247.108C82.78 247.068 82.536 247.02 82.32 246.964C82.104 246.9 81.916 246.836 81.756 246.772C81.604 246.7 81.484 246.64 81.396 246.592L81.744 245.632C81.928 245.736 82.208 245.852 82.584 245.98C82.96 246.108 83.42 246.172 83.964 246.172ZM93.9747 238.684V239.692H91.3587V247H90.1947V239.692H87.5787V238.684H93.9747ZM95.2039 247V238.684H100.28V239.68H96.3679V242.152H99.8479V243.124H96.3679V246.004H100.58V247H95.2039ZM104.267 238.6C105.435 238.6 106.331 238.824 106.955 239.272C107.587 239.712 107.903 240.372 107.903 241.252C107.903 241.732 107.815 242.144 107.639 242.488C107.471 242.824 107.223 243.1 106.895 243.316C106.575 243.524 106.183 243.676 105.719 243.772C105.255 243.868 104.731 243.916 104.147 243.916H103.223V247H102.059V238.804C102.387 238.724 102.751 238.672 103.151 238.648C103.559 238.616 103.931 238.6 104.267 238.6ZM104.363 239.62C103.867 239.62 103.487 239.632 103.223 239.656V242.92H104.099C104.499 242.92 104.859 242.896 105.179 242.848C105.499 242.792 105.767 242.704 105.983 242.584C106.207 242.456 106.379 242.284 106.499 242.068C106.619 241.852 106.679 241.576 106.679 241.24C106.679 240.92 106.615 240.656 106.487 240.448C106.367 240.24 106.199 240.076 105.983 239.956C105.775 239.828 105.531 239.74 105.251 239.692C104.971 239.644 104.675 239.62 104.363 239.62ZM111.585 244.12C111.737 243.768 111.945 243.36 112.209 242.896C112.473 242.424 112.769 241.94 113.097 241.444C113.433 240.948 113.789 240.46 114.165 239.98C114.549 239.5 114.933 239.068 115.317 238.684H116.385V243.964H117.369V244.876H116.385V247H115.305V244.876H111.585V244.12ZM115.305 240.004C115.065 240.26 114.821 240.548 114.573 240.868C114.333 241.18 114.097 241.508 113.865 241.852C113.633 242.196 113.413 242.548 113.205 242.908C113.005 243.268 112.825 243.62 112.665 243.964H115.305V240.004Z" fill="#ABBCFF"/>
<path d="M84.766 262.334C85.074 262.334 85.326 262.311 85.522 262.264C85.7273 262.208 85.8907 262.138 86.012 262.054C86.1333 261.961 86.2173 261.853 86.264 261.732C86.3107 261.611 86.334 261.475 86.334 261.326C86.334 261.009 86.1847 260.747 85.886 260.542C85.5873 260.327 85.074 260.099 84.346 259.856C84.0287 259.744 83.7113 259.618 83.394 259.478C83.0767 259.329 82.792 259.147 82.54 258.932C82.288 258.708 82.0827 258.442 81.924 258.134C81.7653 257.817 81.686 257.434 81.686 256.986C81.686 256.538 81.77 256.137 81.938 255.782C82.106 255.418 82.344 255.11 82.652 254.858C82.96 254.606 83.3333 254.415 83.772 254.284C84.2107 254.144 84.7053 254.074 85.256 254.074C85.9093 254.074 86.474 254.144 86.95 254.284C87.426 254.424 87.818 254.578 88.126 254.746L87.496 256.468C87.2253 256.328 86.922 256.207 86.586 256.104C86.2593 255.992 85.8627 255.936 85.396 255.936C84.8733 255.936 84.4953 256.011 84.262 256.16C84.038 256.3 83.926 256.519 83.926 256.818C83.926 256.995 83.968 257.145 84.052 257.266C84.136 257.387 84.2527 257.499 84.402 257.602C84.5607 257.695 84.738 257.784 84.934 257.868C85.1393 257.943 85.3633 258.022 85.606 258.106C86.11 258.293 86.5487 258.479 86.922 258.666C87.2953 258.843 87.6033 259.053 87.846 259.296C88.098 259.539 88.2847 259.823 88.406 260.15C88.5273 260.477 88.588 260.873 88.588 261.34C88.588 262.245 88.2707 262.95 87.636 263.454C87.0013 263.949 86.0447 264.196 84.766 264.196C84.3367 264.196 83.9493 264.168 83.604 264.112C83.2587 264.065 82.9507 264.005 82.68 263.93C82.4187 263.855 82.19 263.776 81.994 263.692C81.8073 263.608 81.6487 263.529 81.518 263.454L82.134 261.718C82.4233 261.877 82.778 262.021 83.198 262.152C83.6273 262.273 84.15 262.334 84.766 262.334ZM95.0624 264.196C94.3811 264.196 93.7931 264.103 93.2984 263.916C92.8038 263.72 92.3931 263.454 92.0664 263.118C91.7491 262.773 91.5111 262.367 91.3524 261.9C91.2031 261.424 91.1284 260.901 91.1284 260.332V254.298H93.3124V260.15C93.3124 260.542 93.3544 260.878 93.4384 261.158C93.5318 261.429 93.6531 261.653 93.8024 261.83C93.9611 261.998 94.1478 262.119 94.3624 262.194C94.5864 262.269 94.8291 262.306 95.0904 262.306C95.6224 262.306 96.0518 262.143 96.3784 261.816C96.7144 261.489 96.8824 260.934 96.8824 260.15V254.298H99.0664V260.332C99.0664 260.901 98.9871 261.424 98.8284 261.9C98.6698 262.376 98.4271 262.787 98.1004 263.132C97.7738 263.468 97.3584 263.729 96.8544 263.916C96.3504 264.103 95.7531 264.196 95.0624 264.196ZM104.743 254.298C104.911 254.606 105.102 254.989 105.317 255.446C105.541 255.894 105.77 256.384 106.003 256.916C106.246 257.439 106.484 257.975 106.717 258.526C106.95 259.077 107.17 259.595 107.375 260.08C107.58 259.595 107.8 259.077 108.033 258.526C108.266 257.975 108.5 257.439 108.733 256.916C108.976 256.384 109.204 255.894 109.419 255.446C109.643 254.989 109.839 254.606 110.007 254.298H111.995C112.088 254.942 112.172 255.665 112.247 256.468C112.331 257.261 112.401 258.092 112.457 258.96C112.522 259.819 112.578 260.682 112.625 261.55C112.681 262.418 112.728 263.235 112.765 264H110.637C110.609 263.057 110.572 262.031 110.525 260.92C110.478 259.809 110.408 258.689 110.315 257.56C110.147 257.952 109.96 258.386 109.755 258.862C109.55 259.338 109.344 259.814 109.139 260.29C108.943 260.766 108.752 261.223 108.565 261.662C108.378 262.091 108.22 262.46 108.089 262.768H106.563C106.432 262.46 106.274 262.091 106.087 261.662C105.9 261.223 105.704 260.766 105.499 260.29C105.303 259.814 105.102 259.338 104.897 258.862C104.692 258.386 104.505 257.952 104.337 257.56C104.244 258.689 104.174 259.809 104.127 260.92C104.08 262.031 104.043 263.057 104.015 264H101.887C101.924 263.235 101.966 262.418 102.013 261.55C102.069 260.682 102.125 259.819 102.181 258.96C102.246 258.092 102.316 257.261 102.391 256.468C102.475 255.665 102.564 254.942 102.657 254.298H104.743ZM118.307 254.298C118.475 254.606 118.667 254.989 118.881 255.446C119.105 255.894 119.334 256.384 119.567 256.916C119.81 257.439 120.048 257.975 120.281 258.526C120.515 259.077 120.734 259.595 120.939 260.08C121.145 259.595 121.364 259.077 121.597 258.526C121.831 257.975 122.064 257.439 122.297 256.916C122.54 256.384 122.769 255.894 122.983 255.446C123.207 254.989 123.403 254.606 123.571 254.298H125.559C125.653 254.942 125.737 255.665 125.811 256.468C125.895 257.261 125.965 258.092 126.021 258.96C126.087 259.819 126.143 260.682 126.189 261.55C126.245 262.418 126.292 263.235 126.329 264H124.201C124.173 263.057 124.136 262.031 124.089 260.92C124.043 259.809 123.973 258.689 123.879 257.56C123.711 257.952 123.525 258.386 123.319 258.862C123.114 259.338 122.909 259.814 122.703 260.29C122.507 260.766 122.316 261.223 122.129 261.662C121.943 262.091 121.784 262.46 121.653 262.768H120.127C119.997 262.46 119.838 262.091 119.651 261.662C119.465 261.223 119.269 260.766 119.063 260.29C118.867 259.814 118.667 259.338 118.461 258.862C118.256 258.386 118.069 257.952 117.901 257.56C117.808 258.689 117.738 259.809 117.691 260.92C117.645 262.031 117.607 263.057 117.579 264H115.451C115.489 263.235 115.531 262.418 115.577 261.55C115.633 260.682 115.689 259.819 115.745 258.96C115.811 258.092 115.881 257.261 115.955 256.468C116.039 255.665 116.128 254.942 116.221 254.298H118.307ZM135.792 264C135.689 263.664 135.572 263.319 135.442 262.964C135.32 262.609 135.199 262.255 135.078 261.9H131.298C131.176 262.255 131.05 262.609 130.92 262.964C130.798 263.319 130.686 263.664 130.584 264H128.316C128.68 262.955 129.025 261.989 129.352 261.102C129.678 260.215 129.996 259.38 130.304 258.596C130.621 257.812 130.929 257.07 131.228 256.37C131.536 255.661 131.853 254.97 132.18 254.298H134.266C134.583 254.97 134.896 255.661 135.204 256.37C135.512 257.07 135.82 257.812 136.128 258.596C136.445 259.38 136.767 260.215 137.094 261.102C137.42 261.989 137.766 262.955 138.13 264H135.792ZM133.174 256.496C133.127 256.636 133.057 256.827 132.964 257.07C132.87 257.313 132.763 257.593 132.642 257.91C132.52 258.227 132.385 258.577 132.236 258.96C132.096 259.343 131.951 259.744 131.802 260.164H134.56C134.41 259.744 134.266 259.343 134.126 258.96C133.986 258.577 133.85 258.227 133.72 257.91C133.598 257.593 133.491 257.313 133.398 257.07C133.304 256.827 133.23 256.636 133.174 256.496ZM143.228 254.186C144.684 254.186 145.799 254.447 146.574 254.97C147.348 255.483 147.736 256.286 147.736 257.378C147.736 258.059 147.577 258.615 147.26 259.044C146.952 259.464 146.504 259.795 145.916 260.038C146.112 260.281 146.317 260.561 146.532 260.878C146.746 261.186 146.956 261.513 147.162 261.858C147.376 262.194 147.582 262.549 147.778 262.922C147.974 263.286 148.156 263.645 148.324 264H145.874C145.696 263.683 145.514 263.361 145.328 263.034C145.15 262.707 144.964 262.39 144.768 262.082C144.581 261.774 144.394 261.485 144.208 261.214C144.021 260.934 143.834 260.682 143.648 260.458H142.57V264H140.386V254.438C140.862 254.345 141.352 254.279 141.856 254.242C142.369 254.205 142.826 254.186 143.228 254.186ZM143.354 256.048C143.195 256.048 143.05 256.053 142.92 256.062C142.798 256.071 142.682 256.081 142.57 256.09V258.722H143.186C144.007 258.722 144.595 258.619 144.95 258.414C145.304 258.209 145.482 257.859 145.482 257.364C145.482 256.888 145.3 256.552 144.936 256.356C144.581 256.151 144.054 256.048 143.354 256.048ZM153.815 258.288C154.207 257.625 154.58 256.963 154.935 256.3C155.289 255.637 155.616 254.97 155.915 254.298H158.323C157.791 255.343 157.24 256.356 156.671 257.336C156.101 258.316 155.499 259.301 154.865 260.29V264H152.681V260.318C152.046 259.329 151.439 258.339 150.861 257.35C150.291 256.361 149.741 255.343 149.209 254.298H151.743C152.041 254.97 152.363 255.637 152.709 256.3C153.054 256.963 153.423 257.625 153.815 258.288Z" fill="white"/>
</svg>
